<svg width="25" height="24" viewBox="0 0 25 24" fill="none" xmlns="http://www.w3.org/2000/svg">
<path d="M14.489 3.753V3.75C14.3895 3.74987 14.2942 3.71023 14.224 3.63981C14.1537 3.56939 14.1144 3.47396 14.1145 3.3745C14.1146 3.27504 14.1543 3.17971 14.2247 3.10948C14.2951 3.03925 14.3905 2.99987 14.49 3C14.497 3 14.503 3.0035 14.51 3.0045C18.6435 3.0145 21.991 6.3625 21.9955 10.4945C21.9955 10.4965 21.997 10.498 21.997 10.5C21.9974 10.5995 21.9583 10.695 21.8882 10.7656C21.8182 10.8362 21.7229 10.8761 21.6235 10.8765C21.524 10.8769 21.4285 10.8378 21.3579 10.7677C21.2873 10.6977 21.2474 10.6025 21.247 10.503H21.2455C21.2455 6.781 18.215 3.753 14.489 3.753ZM24.339 17.159C24.6542 17.4734 24.8689 17.8744 24.9558 18.311C25.0428 18.7477 24.9981 19.2003 24.8275 19.6115C24.6569 20.0227 24.3683 20.374 23.9981 20.6212C23.6278 20.8683 23.1926 21.0002 22.7475 21H12.419L10.076 23.341C9.86707 23.5502 9.61889 23.7161 9.3457 23.8292C9.0725 23.9423 8.77967 24.0004 8.48399 24C8.18823 24.0004 7.8953 23.9424 7.62202 23.8293C7.34873 23.7162 7.10047 23.5503 6.89149 23.341L1.63649 18.091C1.42733 17.8822 1.2614 17.6343 1.14818 17.3613C1.03496 17.0884 0.976685 16.7958 0.976685 16.5002C0.976685 16.2047 1.03496 15.9121 1.14818 15.6392C1.2614 15.3662 1.42733 15.1183 1.63649 14.9095L3.97899 12.5685L3.97949 2.25C3.97949 1.9544 4.03774 1.6617 4.15091 1.38862C4.26407 1.11554 4.42994 0.867431 4.63903 0.65848C4.84812 0.449528 5.09634 0.283826 5.36949 0.170841C5.64265 0.057856 5.93539 -0.000196554 6.23099 5.12877e-07C6.52684 -0.000199233 6.81982 0.0579477 7.09317 0.171113C7.36651 0.284279 7.61486 0.450241 7.82399 0.6595L24.339 17.159ZM11.381 19.925L5.05549 13.606C5.04899 13.613 5.04699 13.6225 5.04049 13.629L2.69799 15.9705C2.62809 16.0399 2.57261 16.1225 2.53475 16.2135C2.49689 16.3044 2.4774 16.402 2.4774 16.5005C2.4774 16.599 2.49689 16.6966 2.53475 16.7875C2.57261 16.8785 2.62809 16.9611 2.69799 17.0305L7.95299 22.2805C8.14449 22.4715 8.36799 22.5005 8.48399 22.5005C8.59949 22.5005 8.82349 22.4715 9.01449 22.2805L11.358 19.9395C11.3645 19.933 11.374 19.9305 11.3805 19.9245L11.381 19.925ZM21.4625 19.5L5.48099 3.534L5.47999 12.5685C5.47999 12.684 5.43899 12.792 5.41349 12.9035L12.0835 19.5665C12.195 19.541 12.303 19.5 12.4195 19.5H21.4625ZM23.2775 18.22L6.76249 1.719C6.6928 1.64914 6.60994 1.5938 6.5187 1.55621C6.42746 1.51862 6.32967 1.49951 6.23099 1.5C6.13299 1.5 6.03649 1.519 5.94449 1.5575C5.80718 1.61383 5.68976 1.70978 5.60721 1.83312C5.52466 1.95645 5.48072 2.10159 5.48099 2.25V2.4735L22.524 19.5H22.747C23.052 19.5 23.324 19.318 23.4405 19.037C23.4976 18.9001 23.5126 18.7492 23.4837 18.6037C23.4548 18.4582 23.3831 18.3246 23.278 18.22H23.2775ZM13.7395 0.75C13.7395 0.651467 13.7589 0.553899 13.7966 0.462872C13.8344 0.371846 13.8896 0.289144 13.9593 0.219494C14.029 0.149843 14.1118 0.0946089 14.2028 0.0569473C14.2939 0.0192857 14.3915 -6.51761e-05 14.49 5.12877e-07C14.497 5.12877e-07 14.503 0.00350051 14.51 0.00450051C20.302 0.0145005 24.994 4.706 24.9985 10.4945C24.9985 10.4965 25 10.498 25 10.5C25.0004 10.699 24.9217 10.89 24.7813 11.0309C24.7118 11.1008 24.6292 11.1562 24.5382 11.1941C24.4473 11.232 24.3498 11.2516 24.2512 11.2517C24.1527 11.2519 24.0551 11.2327 23.964 11.1952C23.8729 11.1577 23.7901 11.1026 23.7203 11.0331C23.5793 10.8927 23.4999 10.702 23.4995 10.503H23.498C23.498 5.54 19.457 1.503 14.489 1.503V1.5C14.2902 1.49974 14.0995 1.42063 13.959 1.28004C13.8184 1.13944 13.7393 0.948832 13.739 0.75H13.7395Z" fill="#828C8E"/>
</svg>
