<svg width="23" height="24" viewBox="0 0 23 24" fill="none" xmlns="http://www.w3.org/2000/svg">
<path d="M22.75 3V21C22.75 21.7956 22.4339 22.5587 21.8713 23.1213C21.3087 23.6839 20.5456 24 19.75 24H3.25C2.45435 24 1.69129 23.6839 1.12868 23.1213C0.56607 22.5587 0.25 21.7956 0.25 21V3C0.25 2.20435 0.56607 1.44129 1.12868 0.87868C1.69129 0.31607 2.45435 0 3.25 0L19.75 0C20.5456 0 21.3087 0.31607 21.8713 0.87868C22.4339 1.44129 22.75 2.20435 22.75 3ZM21.25 3C21.25 2.173 20.577 1.5 19.75 1.5H3.25C2.423 1.5 1.75 2.173 1.75 3V21C1.75 21.8265 2.423 22.5 3.25 22.5H19.75C20.577 22.5 21.25 21.8265 21.25 21V3ZM19.75 3.75V17.25C19.75 17.4489 19.671 17.6397 19.5303 17.7803C19.3897 17.921 19.1989 18 19 18H4C3.80109 18 3.61032 17.921 3.46967 17.7803C3.32902 17.6397 3.25 17.4489 3.25 17.25V3.75C3.25 3.335 3.5855 3 4 3H19C19.415 3 19.75 3.335 19.75 3.75ZM4 3.75V9.815L6.4375 7.004C6.50779 6.92405 6.59432 6.86001 6.69132 6.81613C6.78831 6.77226 6.89354 6.74957 7 6.74957C7.10646 6.74957 7.21169 6.77226 7.30868 6.81613C7.40568 6.86001 7.49221 6.92405 7.5625 7.004L13.4855 13.717L15.4375 11.504C15.5079 11.4242 15.5944 11.3603 15.6914 11.3165C15.7884 11.2727 15.8936 11.2501 16 11.2501C16.1064 11.2501 16.2116 11.2727 16.3086 11.3165C16.4056 11.3603 16.4921 11.4242 16.5625 11.504L19 14.152V3.75H4ZM4 17.25H15.556L13.485 14.851L13.05 14.357L7 7.5L4 10.95V17.25ZM19 17.25V15.285L16 12L13.985 14.284L16.556 17.2505L19 17.25ZM12.25 7.5C12.25 6.90326 12.4871 6.33097 12.909 5.90901C13.331 5.48705 13.9033 5.25 14.5 5.25C15.0967 5.25 15.669 5.48705 16.091 5.90901C16.5129 6.33097 16.75 6.90326 16.75 7.5C16.75 8.09674 16.5129 8.66903 16.091 9.09099C15.669 9.51295 15.0967 9.75 14.5 9.75C13.9033 9.75 13.331 9.51295 12.909 9.09099C12.4871 8.66903 12.25 8.09674 12.25 7.5ZM13 7.5C13 8.327 13.673 9 14.5 9C15.327 9 16 8.327 16 7.5C16 6.673 15.327 6 14.5 6C13.673 6 13 6.673 13 7.5Z" fill="#828C8E"/>
</svg>
