<svg width="24" height="22" viewBox="0 0 24 22" fill="none" xmlns="http://www.w3.org/2000/svg">
<path d="M22.0225 2.225C19.3875 -0.408497 15.1125 -0.408497 12.4775 2.225L1.53499 13.027C-0.511012 15.072 -0.511012 18.3995 1.53499 20.444C3.58149 22.4885 6.91249 22.4885 8.95899 20.444L19.9015 9.6425C20.2497 9.29485 20.526 8.88194 20.7145 8.42739C20.9031 7.97284 21.0001 7.48559 21.0001 6.9935C21.0001 6.50142 20.9031 6.01416 20.7145 5.55962C20.526 5.10507 20.2497 4.69216 19.9015 4.3445C19.1979 3.64207 18.2442 3.24754 17.25 3.24754C16.2557 3.24754 15.3021 3.64207 14.5985 4.3445L6.37199 12.561C6.30239 12.6306 6.24718 12.7133 6.20953 12.8043C6.17187 12.8952 6.15251 12.9927 6.15253 13.0912C6.15255 13.1896 6.17197 13.2871 6.20966 13.3781C6.24736 13.469 6.3026 13.5517 6.37224 13.6213C6.44187 13.6909 6.52453 13.7461 6.6155 13.7837C6.70647 13.8214 6.80396 13.8407 6.90242 13.8407C7.00087 13.8407 7.09835 13.8213 7.1893 13.7836C7.28025 13.7459 7.36289 13.6906 7.43249 13.621L15.659 5.4035C16.0816 4.98276 16.6537 4.74655 17.25 4.74655C17.8463 4.74655 18.4184 4.98276 18.841 5.4035C19.2623 5.82521 19.4989 6.39691 19.4989 6.993C19.4989 7.58909 19.2623 8.1608 18.841 8.5825L7.89849 19.384C7.19498 20.0867 6.24131 20.4814 5.24699 20.4814C4.25266 20.4814 3.299 20.0867 2.59549 19.384C2.24718 19.0364 1.97085 18.6236 1.78231 18.1691C1.59377 17.7145 1.49672 17.2273 1.49672 16.7353C1.49672 16.2432 1.59377 15.756 1.78231 15.3014C1.97085 14.8469 2.24718 14.4341 2.59549 14.0865L13.431 3.391C15.482 1.3425 18.807 1.3425 20.855 3.391C21.3428 3.87746 21.7299 4.45537 21.994 5.09163C22.2582 5.7279 22.3942 6.41002 22.3943 7.09894C22.3945 7.78786 22.2587 8.47004 21.9948 9.10641C21.7309 9.74278 21.3441 10.3208 20.8565 10.8075L12.7365 18.9185C12.6665 18.9878 12.6109 19.0703 12.573 19.1613C12.5351 19.2522 12.5155 19.3497 12.5155 19.4483C12.5155 19.5468 12.5351 19.6443 12.573 19.7352C12.6109 19.8262 12.6665 19.9087 12.7365 19.978C12.8061 20.0478 12.8888 20.1031 12.9798 20.1409C13.0709 20.1786 13.1684 20.1981 13.267 20.1981C13.3655 20.1981 13.4631 20.1786 13.5542 20.1409C13.6452 20.1031 13.7279 20.0478 13.7975 19.978L22.0225 11.761C24.659 9.128 24.659 4.8585 22.0225 2.2255V2.225Z" fill="#828C8E"/>
</svg>
