<svg width="25" height="19" viewBox="0 0 25 19" fill="none" xmlns="http://www.w3.org/2000/svg">
<path d="M18.179 4.2185C19.2615 7.5035 19.2615 10.835 18.179 14.1205C18.1374 14.2459 18.0636 14.3582 17.9648 14.446C17.8661 14.5338 17.7459 14.594 17.6165 14.6205C15.5996 15.0367 13.5458 15.2478 11.4865 15.2505C9.45247 15.2505 7.38997 15.0385 5.35697 14.6205C5.22753 14.594 5.10737 14.5338 5.00862 14.446C4.90986 14.3582 4.836 14.2459 4.79447 14.1205C3.71197 10.8355 3.71197 7.504 4.79447 4.2185C4.836 4.09306 4.90986 3.98079 5.00862 3.89301C5.10737 3.80523 5.22753 3.74503 5.35697 3.7185C7.37383 3.30229 9.42762 3.09122 11.487 3.0885C13.5215 3.0885 15.5835 3.3005 17.617 3.7185C17.88 3.7725 18.0945 3.9625 18.179 4.2185ZM17.4655 4.453C13.5216 3.63477 9.45181 3.63477 5.50797 4.453C4.47147 7.598 4.47147 10.741 5.50797 13.8865C9.45182 14.7047 13.5216 14.7047 17.4655 13.8865C18.502 10.7415 18.502 7.598 17.4655 4.453ZM24.135 16.51C24.064 16.8083 23.9033 17.0777 23.6745 17.2819C23.4458 17.4861 23.1599 17.6153 22.8555 17.652C21.2785 17.843 19.6905 17.9835 18.1025 18.083C18.1885 18.1375 18.2435 18.193 18.2435 18.25C18.2435 18.665 15.891 19 12.9885 19C10.086 19 7.73347 18.665 7.73347 18.25C7.73347 18.193 7.78847 18.1375 7.87347 18.083C6.28597 17.983 4.69797 17.843 3.12097 17.652C2.81656 17.6152 2.53074 17.486 2.30198 17.2818C2.07323 17.0776 1.91251 16.8083 1.84147 16.51C0.693469 11.6925 0.693469 6.8075 1.84147 1.99C1.91256 1.69171 2.07337 1.42237 2.30224 1.21827C2.5311 1.01417 2.81701 0.88512 3.12147 0.8485C6.39517 0.45144 9.68978 0.251579 12.9875 0.25C16.262 0.25 19.5815 0.4515 22.855 0.8485C23.1594 0.88512 23.4453 1.01417 23.6742 1.21827C23.9031 1.42237 24.0639 1.69171 24.135 1.99C25.283 6.807 25.283 11.692 24.135 16.5095V16.51ZM22.675 2.3375C16.241 1.55436 9.73589 1.55436 3.30197 2.3375C2.20397 6.946 2.20397 11.554 3.30197 16.1625C9.73575 16.9453 16.2407 16.9453 22.6745 16.1625C23.773 11.554 23.773 6.946 22.6745 2.3375H22.675ZM19.745 5.125C19.745 4.82637 19.8636 4.53996 20.0748 4.3288C20.2859 4.11763 20.5723 3.999 20.871 3.999C21.1696 3.999 21.456 4.11763 21.6672 4.3288C21.8783 4.53996 21.997 4.82637 21.997 5.125C21.997 5.42363 21.8783 5.71004 21.6672 5.9212C21.456 6.13237 21.1696 6.251 20.871 6.251C20.5723 6.251 20.2859 6.13237 20.0748 5.9212C19.8636 5.71004 19.745 5.42363 19.745 5.125ZM20.4955 5.125C20.5004 5.22124 20.5422 5.31189 20.612 5.37826C20.6819 5.44462 20.7746 5.48162 20.871 5.48162C20.9673 5.48162 21.06 5.44462 21.1299 5.37826C21.1998 5.31189 21.2415 5.22124 21.2465 5.125C21.2415 5.02876 21.1998 4.93811 21.1299 4.87174C21.06 4.80538 20.9673 4.76838 20.871 4.76838C20.7746 4.76838 20.6819 4.80538 20.612 4.87174C20.5422 4.93811 20.5004 5.02876 20.4955 5.125ZM21.997 14.125C21.997 14.2245 21.9575 14.3198 21.8871 14.3902C21.8168 14.4605 21.7214 14.5 21.622 14.5H19.3695C19.27 14.5 19.1746 14.4605 19.1043 14.3902C19.034 14.3198 18.9945 14.2245 18.9945 14.125C18.9945 14.0255 19.034 13.9302 19.1043 13.8598C19.1746 13.7895 19.27 13.75 19.3695 13.75H21.6215C21.6708 13.7499 21.7196 13.7596 21.7651 13.7784C21.8107 13.7972 21.8521 13.8248 21.887 13.8597C21.9218 13.8945 21.9495 13.9358 21.9684 13.9814C21.9873 14.0269 21.997 14.0757 21.997 14.125ZM22.748 11.875C22.748 11.9243 22.7383 11.9731 22.7194 12.0186C22.7005 12.0642 22.6728 12.1055 22.638 12.1403C22.6031 12.1752 22.5617 12.2028 22.5161 12.2216C22.4706 12.2404 22.4218 12.2501 22.3725 12.25H20.12C20.0205 12.25 19.9251 12.2105 19.8548 12.1402C19.7845 12.0698 19.745 11.9745 19.745 11.875C19.745 11.7755 19.7845 11.6802 19.8548 11.6098C19.9251 11.5395 20.0205 11.5 20.12 11.5H22.3725C22.4719 11.5 22.5673 11.5395 22.6376 11.6098C22.708 11.6802 22.7475 11.7755 22.7475 11.875H22.748ZM22.748 9.625C22.748 9.67429 22.7383 9.72309 22.7194 9.76862C22.7005 9.81415 22.6728 9.85551 22.638 9.89034C22.6031 9.92517 22.5617 9.95278 22.5161 9.9716C22.4706 9.99041 22.4218 10.0001 22.3725 10H20.12C20.0205 10 19.9251 9.96049 19.8548 9.89017C19.7845 9.81984 19.745 9.72446 19.745 9.625C19.745 9.52554 19.7845 9.43016 19.8548 9.35983C19.9251 9.28951 20.0205 9.25 20.12 9.25H22.3725C22.4719 9.25 22.5673 9.28951 22.6376 9.35983C22.708 9.43016 22.7475 9.52554 22.7475 9.625H22.748ZM11.487 6.464C11.4859 6.56444 11.4464 6.66065 11.3765 6.73283C11.3067 6.805 11.2118 6.84766 11.1115 6.852L8.29647 7.045C8.09147 7.066 7.90147 7.25 7.87297 7.454L7.74797 8.875C7.74314 8.97522 7.70025 9.06983 7.62806 9.13951C7.55586 9.2092 7.4598 9.24872 7.35947 9.25C7.31106 9.25042 7.26308 9.2409 7.2185 9.22202C7.17393 9.20314 7.1337 9.1753 7.10033 9.14024C7.06695 9.10517 7.04113 9.06363 7.02447 9.01817C7.00781 8.97272 7.00066 8.92433 7.00347 8.876L7.23347 6.786C7.26747 6.5825 7.46347 6.3965 7.66847 6.373L11.1115 6.1035C11.1601 6.10133 11.2086 6.10906 11.2541 6.12622C11.2996 6.14339 11.3412 6.16962 11.3763 6.20334C11.4113 6.23705 11.4392 6.27754 11.4581 6.32235C11.4771 6.36716 11.4867 6.41535 11.4865 6.464H11.487Z" fill="#828C8E"/>
</svg>
