<svg width="24" height="23" viewBox="0 0 24 23" fill="none" xmlns="http://www.w3.org/2000/svg">
<path d="M24 6.25V20.5C24 21.741 22.9905 22.75 21.75 22.75H2.25C1.65347 22.7493 1.08155 22.5121 0.659741 22.0903C0.237927 21.6684 0.000661713 21.0965 0 20.5L0 2.5C0 1.259 1.0095 0.25 2.25 0.25H18C18.398 0.25 18.7795 0.408 19.0605 0.689L23.5605 5.189C23.6999 5.32832 23.8104 5.49372 23.8858 5.67577C23.9612 5.85782 24 6.05295 24 6.25ZM22.5 7H19.4995C18.9028 7 18.3305 6.76295 17.9085 6.34099C17.4866 5.91903 17.2495 5.34674 17.2495 4.75H17.25V1.75H2.25C1.835 1.75 1.5 2.085 1.5 2.5V20.5C1.5 20.915 1.835 21.25 2.25 21.25H21.75C22.165 21.25 22.5 20.915 22.5 20.5V7ZM22.5 6.25L18 1.75V4.75C18 5.5765 18.673 6.25 19.5 6.25H22.5ZM11.25 5.125C11.25 5.02554 11.2895 4.93016 11.3598 4.85984C11.4302 4.78951 11.5255 4.75 11.625 4.75H15.375C15.4745 4.75 15.5698 4.78951 15.6402 4.85984C15.7105 4.93016 15.75 5.02554 15.75 5.125C15.75 5.22446 15.7105 5.31984 15.6402 5.39016C15.5698 5.46049 15.4745 5.5 15.375 5.5H11.625C11.5255 5.5 11.4302 5.46049 11.3598 5.39016C11.2895 5.31984 11.25 5.22446 11.25 5.125ZM11.25 7.375C11.25 7.27554 11.2895 7.18016 11.3598 7.10984C11.4302 7.03951 11.5255 7 11.625 7H15.375C15.4745 7 15.5698 7.03951 15.6402 7.10984C15.7105 7.18016 15.75 7.27554 15.75 7.375C15.75 7.47446 15.7105 7.56984 15.6402 7.64016C15.5698 7.71049 15.4745 7.75 15.375 7.75H11.625C11.5255 7.75 11.4302 7.71049 11.3598 7.64016C11.2895 7.56984 11.25 7.47446 11.25 7.375ZM11.625 9.25H20.625C20.7245 9.25 20.8198 9.28951 20.8902 9.35983C20.9605 9.43016 21 9.52554 21 9.625C21 9.72446 20.9605 9.81984 20.8902 9.89017C20.8198 9.96049 20.7245 10 20.625 10H11.625C11.5255 10 11.4302 9.96049 11.3598 9.89017C11.2895 9.81984 11.25 9.72446 11.25 9.625C11.25 9.52554 11.2895 9.43016 11.3598 9.35983C11.4302 9.28951 11.5255 9.25 11.625 9.25ZM21 14.125C21 14.2245 20.9605 14.3198 20.8902 14.3902C20.8198 14.4605 20.7245 14.5 20.625 14.5H3.375C3.27554 14.5 3.18016 14.4605 3.10983 14.3902C3.03951 14.3198 3 14.2245 3 14.125C3 14.0255 3.03951 13.9302 3.10983 13.8598C3.18016 13.7895 3.27554 13.75 3.375 13.75H20.625C20.8325 13.75 21 13.9175 21 14.125ZM21 16.375C21 16.4745 20.9605 16.5698 20.8902 16.6402C20.8198 16.7105 20.7245 16.75 20.625 16.75H3.375C3.27554 16.75 3.18016 16.7105 3.10983 16.6402C3.03951 16.5698 3 16.4745 3 16.375C3 16.2755 3.03951 16.1802 3.10983 16.1098C3.18016 16.0395 3.27554 16 3.375 16H20.625C20.8325 16 21 16.167 21 16.375ZM21 18.625C21 18.7245 20.9605 18.8198 20.8902 18.8902C20.8198 18.9605 20.7245 19 20.625 19H3.375C3.27554 19 3.18016 18.9605 3.10983 18.8902C3.03951 18.8198 3 18.7245 3 18.625C3 18.5255 3.03951 18.4302 3.10983 18.3598C3.18016 18.2895 3.27554 18.25 3.375 18.25H20.625C20.8325 18.25 21 18.417 21 18.625ZM21 11.875C21 11.9745 20.9605 12.0698 20.8902 12.1402C20.8198 12.2105 20.7245 12.25 20.625 12.25H3.375C3.27554 12.25 3.18016 12.2105 3.10983 12.1402C3.03951 12.0698 3 11.9745 3 11.875C3 11.7755 3.03951 11.6802 3.10983 11.6098C3.18016 11.5395 3.27554 11.5 3.375 11.5H20.625C20.7245 11.5 20.8198 11.5395 20.8902 11.6098C20.9605 11.6802 21 11.7755 21 11.875ZM3 9.25V4.75C3 4.335 3.3355 4 3.75 4H9C9.415 4 9.75 4.335 9.75 4.75V9.25C9.75 9.44891 9.67098 9.63968 9.53033 9.78033C9.38968 9.92098 9.19891 10 9 10H3.75C3.55109 10 3.36032 9.92098 3.21967 9.78033C3.07902 9.63968 3 9.44891 3 9.25ZM4.5 8.5H8.25V5.5H4.5V8.5Z" fill="#828C8E"/>
</svg>
